<svg width="96" height="142" viewBox="0 0 96 142" fill="none" xmlns="http://www.w3.org/2000/svg">
<g clip-path="url(#clip0_1469_76825)">
<path d="M0 33.9718C1.73268 33.9038 3.46537 33.8291 5.65073 33.7408C5.70537 32.7964 5.6039 31.2269 5.95512 29.7322C6.11902 29.0527 7.18049 28.5432 7.82829 27.9521C8.55415 28.5771 9.74049 29.1275 9.92 29.8545C10.2556 31.2609 10.0215 32.7624 10.0215 34.5833C10.8644 34.2368 11.3639 33.8699 11.8712 33.8631C13.0029 33.8495 14.1424 34.0125 15.282 34.1009C15.0088 34.9977 14.9463 36.0033 14.4234 36.7642C13.081 38.7074 11.4888 40.5214 10.0917 42.4306C9.88878 42.7024 10.201 43.2595 10.318 43.9797C11.1532 43.4702 11.7151 42.8791 12.3785 42.7907C13.2605 42.6684 14.6498 42.6548 15.0166 43.0965C15.4537 43.6264 15.3522 44.863 14.9073 45.4745C14.1659 46.5004 12.8 47.1798 12.0039 48.1922C11.0049 49.4627 10.3102 50.9099 9.47512 52.2823C9.77951 52.4725 10.0917 52.6696 10.3961 52.8598C10.9737 52.5541 11.5278 52.0445 12.1444 51.9834C13.1668 51.8747 14.2205 52.0581 15.2663 52.1124C15.0868 53.0297 15.1493 54.0692 14.6576 54.8369C14.119 55.693 12.8937 56.2162 12.2849 57.0587C11.2156 58.533 10.3805 60.1433 9.45171 61.6924C9.77951 61.8826 10.1073 62.0728 10.4351 62.2631C11.0205 61.9166 11.559 61.4138 12.199 61.2507C13.0654 61.0333 14.0176 61.0809 14.9307 61.0129C14.9698 61.9302 15.0244 62.8406 15.0478 63.7578C15.0478 63.8393 14.9073 63.9548 14.798 64.0092C8.97561 67.0123 10.0293 71.9789 10.0371 76.6533C10.0371 85.2548 9.99805 93.8564 10.0527 102.451C10.0917 108.6 13.44 112.643 20.0741 114.817C29.1044 117.779 33.319 124.335 31.6722 132.543C31.5005 133.413 32.2107 135.043 32.9912 135.329C43.5902 139.256 54.1346 139.079 64.7259 134.69C64.4761 133.453 64.2107 132.373 64.0468 131.286C62.9385 123.812 67.2156 117.609 75.278 114.946C82.9346 112.418 85.9239 108.729 85.9473 101.649C85.9785 91.8045 85.8381 81.9596 86.0332 72.1147C86.0878 69.2747 85.2683 67.2025 82.8019 65.3069C81.6936 64.4576 81.4361 62.7523 80.7961 61.441H85.8771C87.1805 59.3144 84.5424 58.0099 82.919 56.2434C81.92 55.1495 81.4517 53.6819 80.7493 52.3842C82.3259 52.3027 83.8946 52.2212 86.2439 52.0989C85.6039 50.9778 84.9093 49.4831 83.9415 48.1378C83.3327 47.2953 82.0761 46.7925 81.5532 45.9365C81.038 45.0872 81.0927 43.9729 80.8976 42.9742C82.0293 43.0353 83.1688 43.0421 84.2927 43.1848C84.7376 43.2391 85.1278 43.5857 85.5493 43.8031C85.8615 43.6332 86.1737 43.4634 86.4858 43.2935C85.6429 41.8259 84.9327 40.2904 83.918 38.918C83.2312 37.9872 81.92 37.3961 81.2878 36.4449C80.7883 35.6975 80.9054 34.6376 80.7493 33.7204C81.7951 33.6796 82.8566 33.5369 83.8868 33.6524C84.4019 33.7068 84.8468 34.2435 85.9785 34.9977C85.9785 32.8847 85.7522 31.3152 86.08 29.8341C86.2361 29.1139 87.4302 28.5635 88.1561 27.9385C88.8039 28.5296 89.8498 29.0459 90.0137 29.7254C90.3649 31.1318 90.2478 32.6265 90.318 33.9582H96V35.9965C93.4088 38.0619 89.4595 39.3868 90.2088 42.682C92.5424 43.0013 94.2673 43.2324 96 43.4702V44.829C91.9779 48.2171 90.1932 50.5769 90.6459 51.9086C92.6985 52.0581 94.3532 52.1804 96 52.3027V54.341C93.3307 56.4064 89.4283 57.84 90.2088 61.1284C92.6361 61.4206 94.3141 61.6176 96 61.8147V63.1735C93.8068 65.5243 90.0683 66.788 90.1463 70.688C90.3649 81.3142 90.4117 91.9472 90.318 102.58C90.1776 118.914 82.5288 131.395 65.0927 138.501C61.2917 140.051 57.0849 140.845 53.0732 141.994H42.9268C41.6156 141.606 40.3278 141.117 38.9854 140.839C20.1366 136.878 7.61756 124.845 6.2361 107.982C5.33854 97.0701 5.58829 86.0634 5.93171 75.111C6.0878 70.0561 4.90927 66.0679 0 63.1871V61.8282C1.80293 61.6584 3.60585 61.4885 5.75219 61.2915C6.52488 57.7517 2.60683 56.42 0 54.3546V52.3163H5.67415C6.47024 48.4368 2.0839 47.2613 0 44.8426C0 44.3874 0 43.939 0 43.4837C1.72488 43.2459 3.45756 43.0149 5.79122 42.6956C6.54829 39.4004 2.58341 38.0823 0 36.0101C0 35.3306 0 34.6512 0 33.9718ZM24.2185 121.101C21.2371 126.204 22.5171 130.09 27.4029 131.972C29.0263 127.868 27.4966 124.566 24.2185 121.101ZM71.5317 121.326C68.1522 124.628 66.958 128.004 68.4488 132.101C73.5141 129.812 74.6615 125.898 71.5317 121.326ZM83.9415 116.243C83.6527 116.135 83.3639 116.019 83.0829 115.911C80.5932 117.011 78.1034 118.112 75.6761 119.185C76.48 121.142 77.1981 122.895 78.2829 125.545C80.4605 121.971 82.201 119.104 83.9415 116.237V116.243ZM12.7688 115.856C12.5346 116.026 12.3005 116.189 12.0741 116.359C13.7756 119.151 15.4849 121.944 17.5688 125.361C18.6693 122.739 19.4341 120.911 20.1912 119.111C17.561 117.956 15.1649 116.909 12.7688 115.856Z" fill="#B38F54"/>
<path d="M51.5121 0C51.5355 19.9072 51.6604 39.8144 51.4575 59.7215C51.4341 62.2218 49.6468 64.7085 48.6711 67.202C48.078 67.202 47.4848 67.202 46.8916 67.2088C46.0643 64.0291 44.5736 60.8562 44.5268 57.6629C44.2848 41.6012 44.3472 25.5396 44.4721 9.47799C44.4955 6.17598 43.715 3.87273 39.1726 3.14574L50.7394 0H51.5199L51.5121 0Z" fill="#B38F54"/>
<path d="M19.1765 17.8281H35.715C36.6751 19.5742 36.6516 20.77 34.0448 21.6533C32.9833 22.0133 31.8594 23.5964 31.8282 24.6495C31.6253 31.3215 31.7033 38.007 31.7424 44.6858C31.7424 45.3448 31.8907 46.0718 32.2419 46.6425C37.3463 54.8908 42.4975 63.1118 47.9999 71.9104C52.0741 65.3879 55.5394 59.2187 59.6682 53.4028C63.2272 48.3955 64.9365 43.2658 64.3668 37.382C63.9765 33.3326 64.515 29.2221 64.156 25.1727C64.0311 23.807 62.439 22.5297 61.4868 21.232C60.8077 20.3148 60.0663 19.4383 58.8409 17.8892H76.0507C76.6829 19.7101 76.5033 20.7972 74.0604 21.728C72.8429 22.1968 71.8282 24.337 71.8126 25.7298C71.6487 39.5357 71.7111 53.3485 71.7111 67.1612C71.7111 76.7819 71.7814 86.4025 71.6643 96.0232C71.6331 98.87 72.2107 101.01 76.1755 101.234V104.387H58.9346C60.1287 102.811 60.8546 101.819 61.6116 100.854C62.4702 99.7669 64.117 98.7069 64.1326 97.6199C64.3043 85.6212 64.2341 73.6225 64.2107 61.6307C64.2107 61.4472 63.9765 61.2706 63.516 60.6047C61.5882 63.6418 59.8087 66.4274 58.0448 69.2267C56.1638 72.1958 54.4702 75.2736 52.3629 78.1136C51.3326 79.4996 49.4048 81.4903 48.1326 81.3612C46.4546 81.1913 44.5814 79.4384 43.559 77.9573C40.3433 73.31 37.5024 68.4793 34.4975 63.7233C33.8965 62.7789 33.2253 61.8685 32.1404 60.299C31.9141 61.6171 31.7268 62.215 31.7268 62.8129C31.7112 74.0166 31.7268 85.2271 31.7033 96.4309C31.7033 98.5575 31.7814 100.453 34.8955 101.133C35.676 101.302 36.0585 102.885 36.9248 104.326H19.879C19.4809 102.62 19.3482 101.438 21.9316 100.548C23.1414 100.134 24.156 97.9324 24.1951 96.5192C24.4058 88.2574 24.2965 79.9956 24.2965 71.7337C24.2965 56.5622 24.2809 41.3974 24.3121 26.2258C24.3121 23.8138 24.1482 21.7552 20.7843 20.9466C20.0741 20.7768 19.8165 19.1394 19.1765 17.8213V17.8281Z" fill="#B38F54"/>
<path d="M37.9551 120.971C42.2582 119.78 44.4123 117.244 44.4175 113.362C44.4175 103.422 44.4175 93.4887 44.4175 83.5215H51.5902V89.5752C51.5902 97.375 51.5902 105.182 51.5902 112.981C51.5902 117.008 53.5856 119.637 57.5765 120.87C55.7424 122.419 41.5219 122.65 37.9551 120.971Z" fill="#B38F54"/>
<path d="M75.0908 4.10365C76.9093 4.10365 78.7279 4.0425 80.5386 4.11724C87.1259 4.36863 91.762 9.62059 90.2166 15.1715C90.0293 15.8509 88.8196 16.9244 88.3903 16.8225C87.5162 16.6187 86.7123 15.8169 86.1425 15.1036C85.8303 14.7163 86.0645 14.0029 86.0332 13.439C85.8147 9.38958 84.0586 7.82011 79.2664 7.66384C75.8947 7.54834 72.5074 7.74537 69.1513 7.54155C68.1679 7.4804 67.2547 6.52241 66.3103 5.97887C67.2859 5.35379 68.1913 4.34824 69.2605 4.17839C71.1493 3.87944 73.1396 4.09686 75.083 4.09686C75.083 4.09686 75.083 4.10365 75.083 4.11045L75.0908 4.10365Z" fill="#B38F54"/>
<path d="M5.76001 14.5671C5.98635 7.45355 9.81074 4.16513 16.5932 4.09718C20.1054 4.06321 23.6176 3.97489 27.1142 4.17192C28.0742 4.22627 28.9639 5.23862 29.8849 5.80934C28.9873 6.40723 28.1288 7.46714 27.1844 7.52828C23.6956 7.7457 20.1678 7.52828 16.6634 7.67096C11.9883 7.8612 10.3571 9.54618 9.95123 13.5956C9.83416 14.7506 8.65562 15.8241 7.96879 16.9315C6.99318 15.8852 6.02538 14.8389 5.76001 14.5603V14.5671Z" fill="#B38F54"/>
</g>
<defs>
<clipPath id="clip0_1469_76825">
<rect width="96" height="142" fill="white"/>
</clipPath>
</defs>
</svg>
